<svg width="24" height="24" viewBox="0 0 24 24" fill="none" xmlns="http://www.w3.org/2000/svg">
<mask id="mask0_525_1374" style="mask-type:luminance" maskUnits="userSpaceOnUse" x="1" y="2" width="22" height="20">
<path d="M23 2H1V21.9407H23V2Z" fill="white"/>
</mask>
<g mask="url(#mask0_525_1374)">
<path fill-rule="evenodd" clip-rule="evenodd" d="M20.3141 4.37754C18.3623 2.74835 15.8754 1.90118 13.3348 1.99999C5.99439 1.99999 1 7.67543 1 7.67543L2.41426 9.895C2.41426 9.895 3.20192 9.94868 2.75402 8.64179C3.37914 7.6076 4.21543 6.71694 5.20827 6.02802V20.9207C4.63535 21.0994 3.84769 21.3678 4.34928 21.9407H8.37654C8.89573 21.4215 8.09047 21.0818 7.58888 20.9207V17.3927C9.4339 18.0577 11.3742 18.4203 13.3348 18.4664C15.7759 18.5198 18.1619 17.7372 20.0971 16.2484C20.9941 15.5461 21.7208 14.6502 22.223 13.6276C22.7251 12.6049 22.9897 11.4821 22.9969 10.3429C23.011 9.21372 22.7781 8.09513 22.3144 7.06548C21.8507 6.03581 21.1675 5.11999 20.3126 4.38214M13.1002 17.0537C11.2064 17.0974 9.32561 16.7311 7.58658 15.98V4.84615C9.23488 3.80013 11.148 3.2474 13.1002 3.25319C14.0596 3.2322 15.0132 3.40712 15.9026 3.76726C16.7921 4.1274 17.5988 4.66519 18.2732 5.34774C19.4978 6.71753 20.1506 8.50475 20.0971 10.3414C20.1167 11.2277 19.9554 12.1086 19.6229 12.9304C19.2905 13.7522 18.7939 14.4976 18.1636 15.121C16.7895 16.3961 14.9745 17.0889 13.1002 17.0537Z" fill="white"/>
</g>
</svg>
