<svg width="24" height="24" viewBox="0 0 24 24" fill="none" xmlns="http://www.w3.org/2000/svg">
<g clip-path="url(#clip0_443_1245)">
<path d="M12.0081 22.0149C9.35417 22.0149 6.80891 20.9606 4.93227 19.084C3.05563 17.2073 2.00134 14.6621 2.00134 12.0081C2.00134 9.35414 3.05563 6.80888 4.93227 4.93224C6.80891 3.0556 9.35417 2.00131 12.0081 2.00131C17.5218 2.00131 22.0149 6.04411 22.0149 11.0073C22.0138 12.5993 21.3809 14.1257 20.2553 15.2514C19.1296 16.3771 17.6033 17.0102 16.0113 17.0115H14.2413C14.1754 17.0106 14.1098 17.0229 14.0487 17.0477C13.9875 17.0725 13.9319 17.1092 13.8851 17.1558C13.8383 17.2023 13.8013 17.2578 13.7763 17.3188C13.7512 17.3799 13.7386 17.4453 13.7391 17.5113C13.7432 17.633 13.7892 17.7496 13.8693 17.8413C14.2781 18.3024 14.5056 18.8961 14.5098 19.5123C14.5098 20.1759 14.2463 20.8123 13.7772 21.2816C13.308 21.7509 12.6717 22.0147 12.0081 22.0149ZM12.0081 4.00261C9.89348 4.01556 7.86984 4.86468 6.37911 6.36457C4.88837 7.86446 4.05165 9.89326 4.05165 12.008C4.05165 14.1227 4.88837 16.1515 6.37911 17.6514C7.86984 19.1512 9.89348 20.0004 12.0081 20.0133C12.074 20.014 12.1394 20.0014 12.2004 19.9765C12.2614 19.9516 12.3168 19.9148 12.3634 19.8682C12.41 19.8216 12.4468 19.7662 12.4718 19.7052C12.4967 19.6442 12.5092 19.5788 12.5085 19.5129C12.5054 19.3832 12.4557 19.2589 12.3684 19.1628C12.0485 18.8029 11.8395 18.3581 11.7667 17.882C11.6939 17.4059 11.7605 16.919 11.9584 16.4799C12.1562 16.0409 12.4769 15.6684 12.8817 15.4076C13.2866 15.1467 13.7583 15.0086 14.2398 15.0099H16.0098C16.5356 15.0102 17.0563 14.9069 17.5421 14.7058C18.0279 14.5048 18.4693 14.21 18.8411 13.8383C19.213 13.4666 19.5079 13.0252 19.7091 12.5395C19.9103 12.0537 20.0138 11.5331 20.0136 11.0073C20.0136 7.14481 16.4211 4.00261 12.0081 4.00261Z" fill="#73D1ED"/>
<path d="M6.45005 12.9C7.36132 12.9 8.10005 12.2956 8.10005 11.55C8.10005 10.8044 7.36132 10.2 6.45005 10.2C5.53878 10.2 4.80005 10.8044 4.80005 11.55C4.80005 12.2956 5.53878 12.9 6.45005 12.9Z" fill="#73D1ED"/>
<path d="M9.6001 9.00002C10.4285 9.00002 11.1001 8.3956 11.1001 7.65002C11.1001 6.90443 10.4285 6.30002 9.6001 6.30002C8.77167 6.30002 8.1001 6.90443 8.1001 7.65002C8.1001 8.3956 8.77167 9.00002 9.6001 9.00002Z" fill="#73D1ED"/>
<path d="M14.4 9.00002C15.2285 9.00002 15.9 8.3956 15.9 7.65002C15.9 6.90443 15.2285 6.30002 14.4 6.30002C13.5716 6.30002 12.9 6.90443 12.9 7.65002C12.9 8.3956 13.5716 9.00002 14.4 9.00002Z" fill="#73D1ED"/>
<path d="M17.55 12.9C18.4613 12.9 19.2 12.2956 19.2 11.55C19.2 10.8044 18.4613 10.2 17.55 10.2C16.6388 10.2 15.9 10.8044 15.9 11.55C15.9 12.2956 16.6388 12.9 17.55 12.9Z" fill="#73D1ED"/>
</g>
<defs>
<clipPath id="clip0_443_1245">
<rect width="24" height="24" fill="white"/>
</clipPath>
</defs>
</svg>
