<svg width="24" height="24" viewBox="0 0 24 24" fill="none" xmlns="http://www.w3.org/2000/svg">
<mask id="mask0_525_1341" style="mask-type:luminance" maskUnits="userSpaceOnUse" x="1" y="1" width="22" height="22">
<path d="M23 1H1V22.4529H23V1Z" fill="white"/>
</mask>
<g mask="url(#mask0_525_1341)">
<path d="M12.0088 1.00001C9.39536 0.997184 6.86638 1.92524 4.87513 3.61784C2.88387 5.31043 1.56054 7.65689 1.14234 10.2366C0.724134 12.8164 1.2384 15.4608 2.59295 17.6958C3.94749 19.9307 6.05378 21.6102 8.53424 22.4331C9.08377 22.5396 9.27687 22.2029 9.27687 21.9009C9.27687 21.6353 9.25954 20.7664 9.25954 19.8448C6.19257 20.5181 5.55476 18.551 5.55476 18.551C5.35511 17.8834 4.92082 17.3104 4.33194 16.9379C3.3418 16.2464 4.4029 16.2646 4.4029 16.2646C4.75167 16.3124 5.08483 16.4394 5.37677 16.6361C5.66872 16.8329 5.91168 17.0938 6.08696 17.3991C6.39088 17.9463 6.89935 18.3505 7.50087 18.5233C8.1024 18.696 8.7479 18.6232 9.29585 18.3208C9.3508 17.7656 9.59495 17.2462 9.98729 16.8496C7.54081 16.5658 4.97058 15.6268 4.97058 11.4039C4.95403 10.3079 5.36034 9.24761 6.10511 8.44336C5.77129 7.49637 5.80964 6.45793 6.21237 5.53813C6.21237 5.53813 7.13402 5.23697 9.24386 6.67266C10.1387 6.42499 11.063 6.2998 11.9915 6.30054C12.9201 6.29741 13.8447 6.42264 14.7391 6.67266C16.8308 5.25429 17.7706 5.53813 17.7706 5.53813C18.185 6.45613 18.2232 7.49999 17.877 8.44583C18.6246 9.24833 19.0314 10.3098 19.0116 11.4063C19.0116 15.6251 16.4413 16.5649 13.9949 16.8306C14.256 17.0985 14.4573 17.4188 14.5852 17.7703C14.7133 18.1218 14.7652 18.4964 14.7375 18.8695C14.7375 20.3407 14.7201 21.5288 14.7201 21.8828C14.7201 22.184 14.9149 22.5206 15.4825 22.415C17.9587 21.5905 20.0606 19.9117 21.4121 17.679C22.7634 15.4463 23.2761 12.8056 22.8582 10.2294C22.4403 7.6532 21.1191 5.30986 19.1313 3.61883C17.1434 1.92779 14.6187 0.99946 12.0088 1.00001Z" fill="white"/>
</g>
</svg>
