<svg width="24" height="24" viewBox="0 0 24 24" fill="none" xmlns="http://www.w3.org/2000/svg">
<g clip-path="url(#clip0_443_1261)">
<path d="M20.0001 18C20.529 17.998 21.0355 17.7863 21.4086 17.4114C21.7816 17.0364 21.9907 16.5288 21.99 15.9999L21.9999 4.9998C21.9983 4.46991 21.7871 3.96217 21.4124 3.58748C21.0377 3.21278 20.53 3.00158 20.0001 3H3.9999C3.46996 3.00158 2.96217 3.21283 2.58747 3.58758C2.21277 3.96234 2.0016 4.47015 2.0001 5.0001V15.9999C2.0016 16.5298 2.21277 17.0377 2.58747 17.4124C2.96217 17.7872 3.46996 17.9984 3.9999 18H0C0.001504 18.53 0.212711 19.0379 0.587477 19.4126C0.962243 19.7874 1.4701 19.9986 2.0001 20.0001H21.9999C22.5299 19.9986 23.0378 19.7874 23.4125 19.4126C23.7873 19.0379 23.9985 18.53 24 18H20.0001ZM3.9999 5.0001H20.0001V15.9999H3.9999V5.0001ZM12 18.9999C11.8022 18.9999 11.6089 18.9413 11.4445 18.8314C11.2801 18.7215 11.1519 18.5654 11.0762 18.3826C11.0005 18.1999 10.9807 17.9989 11.0193 17.8049C11.0579 17.611 11.1531 17.4328 11.293 17.293C11.4328 17.1531 11.611 17.0579 11.8049 17.0193C11.9989 16.9807 12.1999 17.0005 12.3826 17.0762C12.5654 17.1519 12.7215 17.2801 12.8314 17.4445C12.9413 17.6089 12.9999 17.8022 12.9999 18C12.9991 18.2649 12.8935 18.5188 12.7062 18.7062C12.5188 18.8935 12.2649 18.9991 12 18.9999Z" fill="url(#paint0_linear_443_1261)"/>
<path d="M10.7004 12.7998L8.40034 10.4994L10.7004 8.19932L10.0002 7.49942L7.00024 10.4994L10.0002 13.4994L10.7004 12.7998ZM13.3005 12.7998L15.6009 10.4994L13.3002 8.19962L14.0007 7.49942L17.0007 10.4994L14.0007 13.4994L13.3005 12.7998Z" fill="url(#paint1_linear_443_1261)"/>
</g>
<defs>
<linearGradient id="paint0_linear_443_1261" x1="8.9407e-08" y1="11.5001" x2="24" y2="11.5001" gradientUnits="userSpaceOnUse">
<stop stop-color="#73D1ED"/>
<stop offset="1" stop-color="#73D1ED"/>
</linearGradient>
<linearGradient id="paint1_linear_443_1261" x1="7.00024" y1="10.4994" x2="17.0007" y2="10.4994" gradientUnits="userSpaceOnUse">
<stop stop-color="#73D1ED"/>
<stop offset="1" stop-color="#73D1ED"/>
</linearGradient>
<clipPath id="clip0_443_1261">
<rect width="24" height="24" fill="white"/>
</clipPath>
</defs>
</svg>
