<svg width="24" height="24" viewBox="0 0 24 24" fill="none" xmlns="http://www.w3.org/2000/svg">
<mask id="mask0_525_1331" style="mask-type:luminance" maskUnits="userSpaceOnUse" x="1" y="5" width="22" height="14">
<path d="M23 5H1V18.748H23V5Z" fill="white"/>
</mask>
<g mask="url(#mask0_525_1331)">
<path d="M7.368 5.00001C7.95996 4.99141 8.55102 5.04995 9.12986 5.1745C9.61654 5.26688 10.0795 5.45682 10.4909 5.73289C10.8708 5.99422 11.1772 6.3487 11.3808 6.7624C11.6053 7.26024 11.7127 7.80289 11.6949 8.34871C11.7172 8.95358 11.5527 9.55064 11.2238 10.0588C10.8696 10.545 10.3944 10.93 9.84528 11.1755C10.5928 11.3591 11.2495 11.8049 11.696 12.4319C12.0566 13.0163 12.2649 13.6819 12.3018 14.3677C12.3388 15.0535 12.2032 15.7376 11.9075 16.3575C11.6549 16.8435 11.29 17.2622 10.8431 17.5789C10.3757 17.8978 9.85697 18.1339 9.30964 18.2769C8.73524 18.4316 8.14259 18.5079 7.54778 18.5037H1V5.00001H7.368ZM6.96666 10.4432C7.4333 10.4632 7.89349 10.3282 8.27537 10.0593C8.45446 9.9137 8.59453 9.72581 8.68289 9.51256C8.77119 9.29931 8.80509 9.06743 8.7814 8.83782C8.79621 8.57062 8.73571 8.30461 8.60691 8.07005C8.50295 7.87346 8.34575 7.71017 8.15322 7.59892C7.9497 7.47609 7.72465 7.39318 7.49014 7.35462C7.23734 7.30467 6.97999 7.28127 6.72237 7.28483H3.96587V10.4427L6.96666 10.4432ZM7.14116 16.2004C7.42294 16.2078 7.70451 16.1785 7.97873 16.1132C8.22635 16.0631 8.46282 15.9685 8.6767 15.834C8.87838 15.693 9.04541 15.508 9.16529 15.2931C9.29351 15.0207 9.35342 14.7212 9.33978 14.4206C9.36675 14.1415 9.32704 13.86 9.22393 13.5992C9.12076 13.3385 8.95711 13.1061 8.7465 12.921C8.29171 12.607 7.74528 12.4535 7.1935 12.4848H3.96799V16.201L7.14116 16.2004Z" fill="white"/>
<path d="M16.5442 16.1486C16.78 16.3599 17.0562 16.5214 17.3561 16.6234C17.656 16.7253 17.9733 16.7656 18.2892 16.7419C18.7874 16.7558 19.2768 16.6089 19.6851 16.3231C20.0151 16.1212 20.2672 15.8138 20.4005 15.4506H22.7731C22.5063 16.4725 21.8886 17.3679 21.0282 17.9802C20.1821 18.5087 19.199 18.7758 18.2019 18.748C17.4929 18.759 16.7883 18.6346 16.126 18.3816C15.5311 18.1537 14.9946 17.796 14.5555 17.3346C14.1246 16.8612 13.7871 16.3106 13.5609 15.7118C13.3251 15.0453 13.207 14.3428 13.2119 13.6359C13.2055 12.9386 13.3298 12.2463 13.5783 11.5948C13.8034 10.9826 14.1541 10.4242 14.6079 9.95562C15.0622 9.49641 15.6008 9.12909 16.1942 8.87376C16.8403 8.60177 17.5352 8.465 18.2363 8.47189C18.9922 8.45378 19.741 8.62155 20.4169 8.96047C21.0201 9.26234 21.5417 9.70507 21.9377 10.2512C22.3402 10.8067 22.6306 11.4353 22.7927 12.1019C22.9718 12.814 23.0366 13.5501 22.9846 14.2826H15.8822C15.8496 14.9676 16.0877 15.6381 16.5453 16.1491L16.5442 16.1486ZM19.6148 11.0195C19.4127 10.8294 19.1736 10.6833 18.9123 10.5902C18.651 10.4971 18.3733 10.4591 18.0967 10.4786C17.7663 10.463 17.4367 10.5242 17.134 10.6574C16.8312 10.7906 16.5635 10.9922 16.3517 11.2464C16.1826 11.4512 16.0579 11.6888 15.9853 11.9443C15.9241 12.1552 15.8831 12.3713 15.8632 12.59H20.2456C20.2203 12.0104 19.9988 11.4566 19.6174 11.0195H19.6148Z" fill="white"/>
<path d="M15.3239 6.08187H20.8019V7.40803H15.3239V6.08187Z" fill="white"/>
</g>
</svg>
