<svg width="24" height="24" viewBox="0 0 24 24" fill="none" xmlns="http://www.w3.org/2000/svg">
<mask id="mask0_525_1388" style="mask-type:luminance" maskUnits="userSpaceOnUse" x="2" y="2" width="20" height="21">
<path d="M22 2H2V22.9306H22V2Z" fill="white"/>
</mask>
<g mask="url(#mask0_525_1388)">
<path d="M19.034 19.1201L21.879 21.9643L20.9129 22.9303L18.0148 20.0322C16.2972 21.2848 14.227 21.9612 12.1011 21.9643C10.7834 21.9846 9.47484 21.7428 8.25142 21.2531C7.02796 20.7634 5.91401 20.0355 4.97426 19.1115C4.03451 18.1877 3.2877 17.0863 2.77719 15.8714C2.26668 14.6565 2.00267 13.3522 2.00048 12.0343C1.97435 10.7212 2.2114 9.41602 2.69769 8.1959C3.18397 6.97577 3.90962 5.86536 4.83187 4.93014C5.75411 3.99492 6.85427 3.25381 8.06748 2.75053C9.28069 2.24724 10.5824 1.99197 11.8959 1.99975C13.2138 1.97916 14.5227 2.2207 15.7465 2.71033C16.9703 3.19996 18.0845 3.92792 19.0245 4.85192C19.9645 5.77591 20.7116 6.8775 21.2221 8.09269C21.7328 9.30787 21.9968 10.6124 21.9989 11.9305C21.9971 14.6243 20.9315 17.2082 19.034 19.1201ZM20.5338 11.982C20.5285 10.2867 20.0202 8.63108 19.0729 7.22505C18.1256 5.81903 16.7823 4.72591 15.213 4.0843C13.6437 3.44268 11.9194 3.28145 10.2584 3.62104C8.59739 3.96064 7.07464 4.78576 5.88316 5.99183C4.6917 7.19788 3.88515 8.73056 3.56579 10.3955C3.24643 12.0606 3.42864 13.7828 4.0893 15.3442C4.74996 16.9055 5.85934 18.2355 7.27679 19.1656C8.69424 20.0956 10.3559 20.5838 12.0512 20.5684C13.1738 20.5683 14.2853 20.3453 15.3212 19.9125C16.3571 19.4797 17.2968 18.8456 18.0858 18.0469C18.8748 17.2482 19.4975 16.3009 19.9177 15.2598C20.3378 14.2188 20.5473 13.1046 20.5338 11.982Z" fill="white"/>
</g>
</svg>
