<svg width="24" height="24" viewBox="0 0 24 24" fill="none" xmlns="http://www.w3.org/2000/svg">
<mask id="mask0_525_1419" style="mask-type:luminance" maskUnits="userSpaceOnUse" x="1" y="4" width="22" height="16">
<path d="M23 4H1V19.4574H23V4Z" fill="white"/>
</mask>
<g mask="url(#mask0_525_1419)">
<path d="M22.7664 7.32512C22.7664 7.32512 22.5506 5.81505 21.8859 5.15039C21.3001 4.5608 20.506 4.22514 19.6749 4.21581C16.6191 4 11.9985 4 11.9985 4C11.9985 4 7.37916 4 4.3055 4.21581C3.47442 4.22514 2.68031 4.5608 2.0945 5.15039C1.42924 5.81565 1.21402 7.32512 1.21402 7.32512C1.0803 8.5068 1.00886 9.69469 1 10.8839V12.5557C1.00945 13.7449 1.08149 14.9328 1.21581 16.1144C1.21581 16.1144 1.43161 17.6245 2.09628 18.2891C2.76557 18.8835 3.62742 19.2155 4.52249 19.2237C6.28404 19.4033 11.9985 19.4574 11.9985 19.4574C11.9985 19.4574 16.6179 19.4574 19.6915 19.2237C20.5226 19.2144 21.3167 18.8787 21.9025 18.2891C22.5678 17.6239 22.783 16.1144 22.783 16.1144C22.9173 14.9328 22.9894 13.7449 22.9988 12.5557V10.8839C22.9877 9.69419 22.9097 8.50606 22.7652 7.32512H22.7664ZM9.71738 14.5865V8.40357L15.6667 11.5129C15.6667 11.495 9.71738 14.5865 9.71738 14.5865Z" fill="white"/>
</g>
</svg>
