<svg width="24" height="26" viewBox="0 0 24 26" fill="none" xmlns="http://www.w3.org/2000/svg">
<g clip-path="url(#clip0_110_156)">
<path d="M3.94996 22.718H20.385V3.3H8.49296C8.38026 3.31838 8.27571 3.37031 8.19296 3.449C6.78596 4.941 5.42196 6.475 4.03696 7.967C3.94757 8.07437 3.90187 8.21146 3.90896 8.351L3.94996 22.718ZM22.004 0C22.4388 0.00260835 22.8552 0.176179 23.1632 0.483222C23.4712 0.790264 23.646 1.20613 23.65 1.641V24.359C23.6498 24.5749 23.6071 24.7886 23.5243 24.988C23.4415 25.1873 23.3202 25.3684 23.1673 25.5208C23.0144 25.6733 22.8329 25.794 22.6333 25.8763C22.4337 25.9585 22.2198 26.0005 22.004 26H2.29096C1.85695 25.9961 1.44183 25.8219 1.13493 25.515C0.828024 25.2081 0.653877 24.793 0.649964 24.359V7.736C0.638404 7.4321 0.691329 7.12919 0.805258 6.84721C0.919187 6.56523 1.09154 6.31058 1.31096 6.1L6.24996 0.7C6.44173 0.477093 6.6811 0.30009 6.95041 0.18205C7.21972 0.0640109 7.51209 0.00794867 7.80596 0.0180001H22.004V0ZM7.23496 11.444C6.88448 11.444 6.54835 11.3048 6.30052 11.0569C6.05269 10.8091 5.91346 10.473 5.91346 10.1225C5.91346 9.77202 6.05269 9.43589 6.30052 9.18806C6.54835 8.94023 6.88448 8.801 7.23496 8.801H9.44996V6.543C9.44996 6.19252 9.58919 5.85639 9.83702 5.60856C10.0849 5.36073 10.421 5.2215 10.7715 5.2215C11.1219 5.2215 11.4581 5.36073 11.7059 5.60856C11.9537 5.85639 12.093 6.19252 12.093 6.543V10.1C12.0911 10.4498 11.9514 10.7847 11.704 11.0321C11.4567 11.2794 11.1217 11.4192 10.772 11.421H7.23496V11.444Z" fill="white"/>
</g>
<defs>
<clipPath id="clip0_110_156">
<rect width="22.995" height="26" fill="white" transform="translate(0.649963)"/>
</clipPath>
</defs>
</svg>
