<svg width="24" height="24" viewBox="0 0 24 24" fill="none" xmlns="http://www.w3.org/2000/svg">
<g clip-path="url(#clip0_443_1231)">
<path d="M12 6C12.3956 6 12.7822 6.1173 13.1111 6.33706C13.44 6.55682 13.6964 6.86918 13.8478 7.23463C13.9991 7.60009 14.0387 8.00222 13.9616 8.39018C13.8844 8.77814 13.6939 9.13451 13.4142 9.41421C13.1345 9.69392 12.7781 9.8844 12.3902 9.96157C12.0022 10.0387 11.6001 9.99913 11.2346 9.84776C10.8692 9.69638 10.5568 9.44004 10.3371 9.11114C10.1173 8.78224 10 8.39556 10 8C10.0016 7.47005 10.2128 6.96227 10.5875 6.58753C10.9623 6.2128 11.4701 6.00158 12 6ZM12 16C14.7 16 17.8 17.29 18 18H6C6.23 17.28 9.31 16 12 16ZM12 4C11.2089 4 10.4355 4.2346 9.77772 4.67412C9.11992 5.11365 8.60723 5.73836 8.30448 6.46927C8.00173 7.20017 7.92252 8.00444 8.07686 8.78036C8.2312 9.55629 8.61216 10.269 9.17157 10.8284C9.73098 11.3878 10.4437 11.7688 11.2196 11.9231C11.9956 12.0775 12.7998 11.9983 13.5307 11.6955C14.2616 11.3928 14.8864 10.8801 15.3259 10.2223C15.7654 9.56448 16 8.79113 16 8C16 6.93913 15.5786 5.92172 14.8284 5.17157C14.0783 4.42143 13.0609 4 12 4ZM12 14C9.33 14 4 15.34 4 18V20H20V18C20 15.34 14.67 14 12 14Z" fill="#73D1ED"/>
</g>
<defs>
<clipPath id="clip0_443_1231">
<rect width="24" height="24" fill="white"/>
</clipPath>
</defs>
</svg>
