<svg width="24" height="24" viewBox="0 0 24 24" fill="none" xmlns="http://www.w3.org/2000/svg">
<g clip-path="url(#clip0_446_1270)">
<path d="M22 6C21.9984 5.47005 21.7872 4.96227 21.4125 4.58753C21.0377 4.2128 20.5299 4.00158 20 4H4C3.47005 4.00158 2.96227 4.2128 2.58753 4.58753C2.2128 4.96227 2.00158 5.47005 2 6V18C2.00158 18.5299 2.2128 19.0377 2.58753 19.4125C2.96227 19.7872 3.47005 19.9984 4 20H20C20.5299 19.9984 21.0377 19.7872 21.4125 19.4125C21.7872 19.0377 21.9984 18.5299 22 18V6ZM20 6L12 11L4 6H20ZM20 18H4V8L12 13L20 8V18Z" fill="white"/>
</g>
<defs>
<clipPath id="clip0_446_1270">
<rect width="24" height="24" fill="white"/>
</clipPath>
</defs>
</svg>
