<svg width="24" height="24" viewBox="0 0 24 24" fill="none" xmlns="http://www.w3.org/2000/svg">
<mask id="mask0_525_1400" style="mask-type:luminance" maskUnits="userSpaceOnUse" x="2" y="1" width="20" height="23">
<path d="M22 1H2V23.6136H22V1Z" fill="white"/>
</mask>
<g mask="url(#mask0_525_1400)">
<path d="M4.87001 20.7591H19.1645V3.87019H8.82131C8.72329 3.88618 8.63235 3.93134 8.56038 3.99978C7.33664 5.29746 6.15029 6.63166 4.94568 7.92933C4.86794 8.02272 4.82819 8.14195 4.83435 8.26332L4.87001 20.7591ZM20.5726 1C20.9508 1.00227 21.3129 1.15323 21.5808 1.42028C21.8487 1.68734 22.0007 2.04904 22.0042 2.42727V22.1863C22.004 22.3741 21.9669 22.56 21.8949 22.7334C21.8229 22.9068 21.7174 23.0643 21.5844 23.1968C21.4514 23.3295 21.2935 23.4344 21.1199 23.506C20.9463 23.5775 20.7603 23.614 20.5726 23.6136H3.42709C3.04961 23.6102 2.68856 23.4587 2.42163 23.1918C2.1547 22.9249 2.00323 22.5638 1.99983 22.1863V7.72842C1.98977 7.4641 2.03581 7.20064 2.1349 6.95539C2.23399 6.71014 2.38389 6.48865 2.57473 6.3055L6.87045 1.60883C7.03724 1.41495 7.24543 1.261 7.47967 1.15834C7.7139 1.05567 7.96819 1.00691 8.22379 1.01566H20.5726V1ZM7.72716 10.9535C7.42233 10.9535 7.12997 10.8324 6.91442 10.6168C6.69887 10.4013 6.57778 10.1089 6.57778 9.80409C6.57778 9.49926 6.69887 9.20691 6.91442 8.99135C7.12997 8.7758 7.42233 8.65471 7.72716 8.65471H9.65366V6.6908C9.65366 6.38597 9.77476 6.09362 9.99031 5.87807C10.2059 5.66252 10.4982 5.54142 10.8031 5.54142C11.1078 5.54142 11.4003 5.66252 11.6158 5.87807C11.8313 6.09362 11.9525 6.38597 11.9525 6.6908V9.78452C11.9508 10.0888 11.8293 10.38 11.6141 10.5952C11.399 10.8103 11.1077 10.9319 10.8035 10.9335H7.72716V10.9535Z" fill="white"/>
</g>
</svg>
