<svg width="43" height="26" viewBox="0 0 43 26" fill="none" xmlns="http://www.w3.org/2000/svg">
<g clip-path="url(#clip0_110_158)">
<path d="M12.688 -2.34866e-05C13.8075 -0.0162897 14.9253 0.0944171 16.02 0.329976C16.9404 0.504675 17.816 0.863888 18.594 1.38598C19.3124 1.8802 19.8919 2.5506 20.277 3.33298C20.7015 4.27448 20.9047 5.30073 20.871 6.33298C20.9131 7.47689 20.602 8.60604 19.98 9.56698C19.3102 10.4865 18.4114 11.2146 17.373 11.679C18.7866 12.0262 20.0286 12.8693 20.873 14.055C21.555 15.1603 21.9489 16.4191 22.0188 17.716C22.0887 19.013 21.8323 20.3067 21.273 21.479C20.7953 22.3981 20.1052 23.1901 19.26 23.789C18.3761 24.392 17.3951 24.8385 16.36 25.109C15.2737 25.4015 14.1529 25.5458 13.028 25.538H0.644958V-2.34866e-05H12.688ZM11.929 10.294C12.8115 10.3319 13.6818 10.0766 14.404 9.56798C14.7427 9.29266 15.0076 8.93732 15.1747 8.53403C15.3417 8.13074 15.4058 7.6922 15.361 7.25798C15.389 6.75264 15.2746 6.24957 15.031 5.80598C14.8344 5.4342 14.5371 5.12539 14.173 4.91498C13.7881 4.68269 13.3625 4.52589 12.919 4.45298C12.4409 4.3585 11.9542 4.31426 11.467 4.32098H6.25396V10.293L11.929 10.294ZM12.259 21.182C12.7919 21.196 13.3244 21.1405 13.843 21.017C14.3113 20.9222 14.7585 20.7433 15.163 20.489C15.5444 20.2223 15.8603 19.8725 16.087 19.466C16.3295 18.951 16.4428 18.3846 16.417 17.816C16.468 17.2882 16.3929 16.7558 16.1979 16.2627C16.0028 15.7696 15.6933 15.33 15.295 14.98C14.4349 14.3861 13.4015 14.0958 12.358 14.155H6.25796V21.183L12.259 21.182Z" fill="white"/>
<path d="M30.042 21.084C30.488 21.4837 31.0103 21.7891 31.5774 21.9819C32.1445 22.1747 32.7447 22.2509 33.342 22.206C34.2842 22.2323 35.2098 21.9546 35.982 21.414C36.6061 21.0322 37.0829 20.4508 37.335 19.764H41.822C41.3174 21.6965 40.1493 23.39 38.522 24.548C36.922 25.5474 35.0627 26.0525 33.177 26C31.8361 26.0208 30.5036 25.7856 29.251 25.307C28.126 24.876 27.1114 24.1996 26.281 23.327C25.4661 22.4317 24.8278 21.3904 24.4 20.258C23.954 18.9975 23.7307 17.669 23.74 16.332C23.7279 15.0133 23.9629 13.7041 24.433 12.472C24.8587 11.3142 25.5219 10.2582 26.38 9.37198C27.2392 8.50354 28.2578 7.80887 29.38 7.32598C30.6019 6.8116 31.9162 6.55295 33.242 6.56598C34.6715 6.53173 36.0877 6.84902 37.366 7.48998C38.5068 8.06087 39.4932 8.89815 40.242 9.93098C41.0032 10.9816 41.5524 12.1704 41.859 13.431C42.1978 14.7777 42.3203 16.1698 42.222 17.555H28.79C28.7283 18.8506 29.1787 20.1186 30.044 21.085L30.042 21.084ZM35.849 11.384C35.4669 11.0245 35.0146 10.7481 34.5205 10.572C34.0264 10.396 33.5012 10.3241 32.978 10.361C32.3531 10.3315 31.7299 10.4473 31.1573 10.6992C30.5848 10.9511 30.0784 11.3324 29.678 11.813C29.3582 12.2004 29.1223 12.6498 28.985 13.133C28.8692 13.5317 28.7918 13.9405 28.754 14.354H37.042C36.9941 13.2579 36.5752 12.2107 35.854 11.384H35.849Z" fill="white"/>
<path d="M27.734 2.04602H38.094V4.55402H27.734V2.04602Z" fill="white"/>
</g>
<defs>
<clipPath id="clip0_110_158">
<rect width="41.606" height="26" fill="white" transform="translate(0.644958)"/>
</clipPath>
</defs>
</svg>
