<svg width="29" height="26" viewBox="0 0 29 26" fill="none" xmlns="http://www.w3.org/2000/svg">
<g clip-path="url(#clip0_110_163)">
<path fill-rule="evenodd" clip-rule="evenodd" d="M25.4339 3.09999C22.889 0.975747 19.6465 -0.128849 16.3339 -7.2699e-06C6.76295 -7.2699e-06 0.250946 7.39999 0.250946 7.39999L2.09495 10.294C2.09495 10.294 3.12195 10.364 2.53795 8.65999C3.35302 7.31155 4.44343 6.15025 5.73795 5.25199V24.67C4.99095 24.903 3.96395 25.253 4.61795 26H9.86895C10.5459 25.323 9.49595 24.88 8.84195 24.67V20.07C11.2476 20.937 13.7775 21.4098 16.3339 21.47C19.5167 21.5396 22.6277 20.5192 25.1509 18.578C26.3205 17.6623 27.2681 16.4941 27.9228 15.1608C28.5775 13.8274 28.9225 12.3634 28.9319 10.878C28.9503 9.40571 28.6466 7.94722 28.042 6.60469C27.4374 5.26215 26.5466 4.06804 25.4319 3.10599M16.0279 19.628C13.5587 19.6849 11.1064 19.2073 8.83895 18.228V3.71099C10.9881 2.34712 13.4826 1.62644 16.0279 1.63399C17.2789 1.60662 18.5222 1.83469 19.6819 2.30427C20.8417 2.77384 21.8935 3.47504 22.7729 4.36499C24.3696 6.15102 25.2207 8.48131 25.1509 10.876C25.1765 12.0316 24.9662 13.1803 24.5327 14.2518C24.0993 15.3233 23.4518 16.2952 22.6299 17.108C20.8383 18.7706 18.4718 19.6739 16.0279 19.628Z" fill="white"/>
</g>
<defs>
<clipPath id="clip0_110_163">
<rect width="28.685" height="26" fill="white" transform="translate(0.250946)"/>
</clipPath>
</defs>
</svg>
