<svg width="24" height="24" viewBox="0 0 24 24" fill="none" xmlns="http://www.w3.org/2000/svg">
<mask id="mask0_525_1360" style="mask-type:luminance" maskUnits="userSpaceOnUse" x="1" y="1" width="22" height="22">
<path d="M23 1H1V22.989H23V1Z" fill="white"/>
</mask>
<g mask="url(#mask0_525_1360)">
<path d="M11.9818 2.98408C14.9131 2.98408 15.2658 3.00184 16.4135 3.05512C17.1116 3.06852 17.8032 3.19358 18.4618 3.42555C18.9354 3.59835 19.3639 3.87589 19.7152 4.23746C20.0784 4.59678 20.3613 5.0292 20.5449 5.50605C20.7945 6.1599 20.9201 6.85454 20.9153 7.55441C20.9686 8.71983 20.9863 9.05558 20.9863 11.986C20.9863 14.9165 20.9686 15.27 20.9153 16.4177C20.9018 17.1158 20.7768 17.8074 20.5449 18.466C20.372 18.9396 20.0945 19.3681 19.733 19.7194C19.3763 20.0788 18.9497 20.3611 18.4796 20.5491C17.8258 20.7987 17.1311 20.9243 16.4312 20.9195C15.2658 20.9728 14.9301 20.9905 11.9996 20.9905C9.06911 20.9905 8.71559 20.9728 7.56794 20.9195C6.86976 20.9061 6.17823 20.7811 5.51958 20.5491C5.04369 20.3719 4.61116 20.0951 4.25098 19.7372C3.8916 19.3805 3.60923 18.9539 3.42132 18.4838C3.17165 17.83 3.04603 17.1353 3.05089 16.4354C2.99761 15.27 2.97985 14.9131 2.97985 11.986C2.97985 9.05897 2.99761 8.70207 3.05089 7.55441C3.06384 6.85751 3.18803 6.16715 3.41878 5.50944C3.59593 5.03354 3.87274 4.60102 4.23068 4.24084C4.59001 3.87756 5.02242 3.59475 5.49928 3.41118C6.1537 3.16005 6.84924 3.03327 7.55018 3.03736C8.69783 2.98408 9.05135 2.98408 11.9818 2.98408ZM11.9818 1.00676C8.99807 1.00676 8.62679 1.02452 7.44446 1.0778C6.53943 1.08712 5.643 1.25455 4.79563 1.57256C4.06017 1.84392 3.3953 2.27753 2.85045 2.84115C2.29054 3.38907 1.85752 4.05304 1.58185 4.78634C1.26596 5.64076 1.09309 6.54141 1.07019 7.45208C0.999146 8.6361 0.999146 9.00569 0.999146 11.9894C0.999146 14.9732 1.01691 15.3444 1.07019 16.5268C1.09122 17.4376 1.26415 18.3386 1.58185 19.1925C1.85321 19.928 2.28682 20.5929 2.85045 21.1377C3.39837 21.6976 4.06234 22.1307 4.79563 22.4063C5.65006 22.7222 6.55072 22.895 7.46137 22.918C8.62679 22.9712 9.01498 22.989 11.9988 22.989C14.9825 22.989 15.3538 22.9712 16.5361 22.918C17.447 22.8969 18.3479 22.724 19.2018 22.4063C19.9373 22.1349 20.6021 21.7013 21.147 21.1377C21.7069 20.5897 22.1399 19.9258 22.4156 19.1925C22.7315 18.3381 22.9044 17.4375 22.9273 16.5268C22.9806 15.3614 22.9983 14.9732 22.9983 11.9894C22.9983 9.00569 22.9806 8.63441 22.9273 7.45208C22.9062 6.54122 22.7333 5.64025 22.4156 4.78634C22.1527 4.0461 21.724 3.37582 21.1622 2.82678C20.6143 2.26687 19.9503 1.83384 19.2171 1.55818C18.3626 1.24229 17.4619 1.06941 16.5513 1.04651C15.3504 1.01099 14.9622 0.993232 11.9785 1.01099L11.9818 1.00676Z" fill="white"/>
<path d="M11.9828 6.33909C10.8652 6.33909 9.77278 6.67048 8.84357 7.29134C7.91439 7.91221 7.19017 8.79467 6.76251 9.82714C6.33485 10.8596 6.22295 11.9957 6.44097 13.0918C6.65899 14.1878 7.19713 15.1946 7.98735 15.9848C8.77756 16.775 9.78436 17.3131 10.8804 17.5312C11.9765 17.7492 13.1126 17.6373 14.145 17.2096C15.1775 16.782 16.0599 16.0577 16.6808 15.1286C17.3016 14.1994 17.6331 13.107 17.6331 11.9894C17.6339 11.2471 17.4884 10.512 17.2047 9.82605C16.9211 9.14015 16.505 8.5169 15.9801 7.99204C15.4552 7.46719 14.832 7.05102 14.1461 6.76738C13.4602 6.48374 12.725 6.3382 11.9828 6.33909ZM11.9828 15.6616C11.2588 15.6599 10.5517 15.4438 9.95047 15.0407C9.34928 14.6374 8.88101 14.0651 8.60476 13.396C8.32851 12.7269 8.25666 11.9909 8.3983 11.281C8.53993 10.5711 8.88869 9.91916 9.40057 9.40726C9.91241 8.89539 10.5645 8.54662 11.2744 8.40499C11.9843 8.26335 12.7202 8.3352 13.3893 8.61144C14.0584 8.88769 14.6307 9.35597 15.0339 9.95713C15.4371 10.5584 15.6532 11.2656 15.6549 11.9894C15.6577 12.4724 15.5646 12.9512 15.3811 13.398C15.1975 13.8448 14.9272 14.2507 14.5856 14.5922C14.2441 14.9338 13.8381 15.2042 13.3913 15.3877C12.9445 15.5713 12.4658 15.6644 11.9828 15.6616Z" fill="white"/>
<path d="M19.1689 6.12762C19.1689 6.38957 19.0912 6.64563 18.9456 6.86343C18.8002 7.08123 18.5933 7.25098 18.3513 7.35123C18.1093 7.45146 17.843 7.47769 17.586 7.42659C17.3292 7.37548 17.0932 7.24935 16.9079 7.06413C16.7227 6.8789 16.5966 6.64292 16.5455 6.386C16.4944 6.12909 16.5206 5.8628 16.6209 5.62079C16.7211 5.37879 16.8909 5.17194 17.1086 5.02641C17.3265 4.88089 17.5825 4.80321 17.8445 4.80321C18.0185 4.80299 18.1907 4.83709 18.3515 4.90357C18.5124 4.97005 18.6584 5.06759 18.7815 5.19062C18.9045 5.31365 19.002 5.45974 19.0685 5.62053C19.135 5.78131 19.1691 5.95364 19.1689 6.12762Z" fill="white"/>
</g>
</svg>
