<svg width="27" height="26" viewBox="0 0 27 26" fill="none" xmlns="http://www.w3.org/2000/svg">
<g clip-path="url(#clip0_110_145)">
<path d="M13.11 2.346C16.576 2.346 16.993 2.367 18.35 2.43C19.1755 2.44584 19.9932 2.59371 20.772 2.868C21.332 3.07232 21.8386 3.40048 22.254 3.828C22.6835 4.25287 23.0179 4.76416 23.235 5.328C23.5302 6.10111 23.6787 6.92246 23.673 7.75C23.736 9.128 23.757 9.525 23.757 12.99C23.757 16.455 23.736 16.873 23.673 18.23C23.6571 19.0555 23.5092 19.8732 23.235 20.652C23.0306 21.212 22.7025 21.7186 22.275 22.134C21.8533 22.5589 21.3489 22.8928 20.793 23.115C20.0199 23.4102 19.1985 23.5587 18.371 23.553C16.993 23.616 16.596 23.637 13.131 23.637C9.66596 23.637 9.24796 23.616 7.89096 23.553C7.06543 23.5372 6.24776 23.3893 5.46896 23.115C4.90627 22.9055 4.39484 22.5782 3.96896 22.155C3.54403 21.7333 3.21015 21.2289 2.98796 20.673C2.69275 19.8999 2.54422 19.0785 2.54996 18.251C2.48696 16.873 2.46596 16.451 2.46596 12.99C2.46596 9.529 2.48696 9.107 2.54996 7.75C2.56527 6.92598 2.71212 6.10969 2.98496 5.332C3.19442 4.7693 3.52173 4.25788 3.94496 3.832C4.36983 3.40245 4.88112 3.06806 5.44496 2.851C6.21875 2.55406 7.04117 2.40416 7.86996 2.409C9.22696 2.346 9.64496 2.346 13.11 2.346ZM13.11 0.00799916C9.58196 0.00799916 9.14296 0.0289991 7.74496 0.0919992C6.67485 0.103011 5.6149 0.30099 4.61296 0.676999C3.74334 0.997856 2.9572 1.51056 2.31296 2.177C1.65092 2.82486 1.13891 3.60995 0.812962 4.477C0.439448 5.48728 0.235041 6.55222 0.207962 7.629C0.123962 9.029 0.123962 9.466 0.123962 12.994C0.123962 16.522 0.144962 16.961 0.207962 18.359C0.232829 19.436 0.437306 20.5013 0.812962 21.511C1.13382 22.3806 1.64652 23.1668 2.31296 23.811C2.96083 24.473 3.74591 24.9851 4.61296 25.311C5.62324 25.6845 6.68819 25.8889 7.76496 25.916C9.14296 25.979 9.60196 26 13.13 26C16.658 26 17.097 25.979 18.495 25.916C19.572 25.8911 20.6373 25.6867 21.647 25.311C22.5166 24.9901 23.3027 24.4774 23.947 23.811C24.609 23.1631 25.121 22.3781 25.447 21.511C25.8205 20.5007 26.0249 19.4358 26.052 18.359C26.115 16.981 26.136 16.522 26.136 12.994C26.136 9.466 26.115 9.027 26.052 7.629C26.0271 6.55199 25.8226 5.48668 25.447 4.477C25.1361 3.60174 24.6292 2.80919 23.965 2.16C23.3171 1.49796 22.532 0.985948 21.665 0.659999C20.6547 0.286485 19.5897 0.0820777 18.513 0.0549991C17.093 0.0129991 16.634 -0.00800085 13.106 0.0129992L13.11 0.00799916Z" fill="white"/>
<path d="M13.111 6.31299C11.7896 6.31299 10.4979 6.70483 9.3992 7.43894C8.30052 8.17306 7.4442 9.21649 6.93853 10.4373C6.43286 11.6581 6.30055 13.0014 6.55834 14.2974C6.81613 15.5934 7.45243 16.7838 8.38679 17.7182C9.32114 18.6525 10.5116 19.2888 11.8076 19.5466C13.1036 19.8044 14.4469 19.6721 15.6677 19.1664C16.8885 18.6608 17.9319 17.8044 18.666 16.7058C19.4001 15.6071 19.792 14.3154 19.792 12.994C19.793 12.1163 19.6209 11.2471 19.2855 10.436C18.9502 9.62499 18.4581 8.88806 17.8375 8.26746C17.2169 7.64687 16.48 7.15479 15.6689 6.81941C14.8579 6.48403 13.9886 6.31194 13.111 6.31299ZM13.111 17.336C12.255 17.334 11.4189 17.0785 10.708 16.6018C9.99715 16.125 9.44346 15.4483 9.11682 14.6572C8.79018 13.866 8.70523 12.9958 8.8727 12.1564C9.04017 11.317 9.45255 10.5461 10.0578 9.94082C10.663 9.33558 11.434 8.9232 12.2734 8.75573C13.1128 8.58826 13.983 8.67321 14.7741 8.99984C15.5653 9.32648 16.242 9.88018 16.7187 10.591C17.1955 11.3019 17.451 12.1381 17.453 12.994C17.4563 13.5651 17.3462 14.1312 17.1292 14.6595C16.9122 15.1878 16.5925 15.6678 16.1886 16.0716C15.7848 16.4755 15.3048 16.7952 14.7765 17.0122C14.2482 17.2293 13.6821 17.3393 13.111 17.336Z" fill="white"/>
<path d="M21.608 6.06295C21.608 6.37268 21.5161 6.67545 21.344 6.93297C21.172 7.1905 20.9274 7.39122 20.6412 7.50975C20.3551 7.62827 20.0402 7.65928 19.7364 7.59886C19.4327 7.53843 19.1536 7.38929 18.9346 7.17028C18.7156 6.95127 18.5665 6.67224 18.506 6.36846C18.4456 6.06469 18.4766 5.74982 18.5952 5.46367C18.7137 5.17752 18.9144 4.93294 19.1719 4.76087C19.4295 4.5888 19.7322 4.49695 20.042 4.49695C20.2477 4.49669 20.4514 4.53701 20.6415 4.61562C20.8317 4.69422 21.0044 4.80956 21.1499 4.95503C21.2953 5.1005 21.4107 5.27324 21.4893 5.46336C21.5679 5.65347 21.6082 5.85723 21.608 6.06295Z" fill="white"/>
</g>
<defs>
<clipPath id="clip0_110_145">
<rect width="26.013" height="26" fill="white" transform="translate(0.124969)"/>
</clipPath>
</defs>
</svg>
