<svg width="288" height="51" viewBox="0 0 288 51" fill="none" xmlns="http://www.w3.org/2000/svg">
<path d="M279.442 44.288C279.442 42.176 281.17 40.448 283.282 40.448C285.394 40.448 287.122 42.176 287.122 44.288C287.122 46.4 285.394 48.128 283.282 48.128C281.17 48.128 279.442 46.4 279.442 44.288Z" fill="white"/>
<path d="M276.955 24.448L272.283 27.52C271.643 26.496 270.427 25.216 268.443 25.216C267.547 25.216 266.907 25.536 266.523 25.92C266.203 26.24 265.947 26.752 265.947 27.328C265.947 28.032 266.267 28.48 266.843 28.864C267.227 29.12 267.611 29.248 268.955 29.952L272.155 31.552C273.563 32.256 274.907 32.96 275.931 34.048C277.403 35.52 277.915 37.184 277.915 39.04C277.915 41.472 277.019 43.584 275.547 45.184C273.435 47.488 270.811 48.192 267.995 48.192C266.267 48.192 264.091 47.936 262.171 46.464C260.635 45.312 259.355 43.456 258.715 41.536L263.835 39.104C264.155 40 264.731 41.152 265.307 41.664C265.691 42.048 266.587 42.688 268.059 42.688C269.019 42.688 270.043 42.368 270.619 41.792C271.131 41.28 271.515 40.448 271.515 39.68C271.515 38.912 271.259 38.272 270.683 37.632C269.915 36.864 269.019 36.416 267.995 35.968L265.691 34.88C264.475 34.304 263.003 33.6 261.979 32.576C260.571 31.232 260.059 29.76 260.059 28.032C260.059 25.856 260.891 23.744 262.299 22.272C263.515 20.992 265.563 19.712 268.891 19.712C270.811 19.712 272.347 20.096 273.883 21.12C274.779 21.696 275.995 22.72 276.955 24.448Z" fill="white"/>
<path d="M233.882 0.703979H240.154V29.44L248.922 20.416H257.242L245.658 31.616L258.074 47.36H250.138L241.306 35.84L240.154 36.992V47.36H233.882V0.703979Z" fill="white"/>
<path d="M213.632 47.36V20.416H219.904V22.848C220.608 22.016 221.632 21.12 222.528 20.608C223.744 19.904 224.96 19.712 226.368 19.712C227.904 19.712 229.568 19.968 231.296 20.992L228.736 26.688C227.328 25.792 226.176 25.728 225.536 25.728C224.192 25.728 222.848 25.92 221.632 27.2C219.904 29.056 219.904 31.616 219.904 33.408V47.36H213.632Z" fill="white"/>
<path d="M196.607 19.712C204.735 19.712 211.007 25.6 211.007 33.92C211.007 42.176 204.735 48.192 196.607 48.192C188.479 48.192 182.207 42.176 182.207 33.92C182.207 25.6 188.479 19.712 196.607 19.712ZM196.607 42.56C201.535 42.56 204.607 39.168 204.607 33.984C204.607 27.84 200.575 25.344 196.607 25.344C192.639 25.344 188.607 27.84 188.607 33.984C188.607 39.168 191.679 42.56 196.607 42.56Z" fill="white"/>
<path d="M128.853 4.67202H135.893L147.157 33.216L158.677 2.62402L169.813 33.216L181.461 4.67202H188.501L169.429 50.112L158.293 19.84L147.029 50.112L128.853 4.67202Z" fill="white"/>
<path d="M105.777 47.36V20.416H112.049V22.848C112.753 22.016 113.777 21.12 114.673 20.608C115.889 19.904 117.105 19.712 118.513 19.712C120.049 19.712 121.713 19.968 123.441 20.992L120.881 26.688C119.473 25.792 118.321 25.728 117.681 25.728C116.337 25.728 114.993 25.92 113.777 27.2C112.049 29.056 112.049 31.616 112.049 33.408V47.36H105.777Z" fill="white"/>
<path d="M97.062 38.272L102.31 41.216C101.158 43.264 99.4941 45.056 97.7661 46.144C95.5901 47.552 92.71 48.192 89.83 48.192C86.246 48.192 83.3021 47.296 80.7421 44.736C78.182 42.176 76.774 38.464 76.774 34.432C76.774 30.272 78.246 26.24 81.062 23.36C83.302 21.12 86.2461 19.712 90.0861 19.712C94.3741 19.712 97.1261 21.568 98.7261 23.232C102.182 26.816 102.502 31.808 102.502 34.624V35.392H83.174C83.302 37.312 84.134 39.488 85.4781 40.832C86.9501 42.304 88.7421 42.56 90.2781 42.56C92.0061 42.56 93.2861 42.176 94.5661 41.216C95.6541 40.384 96.486 39.296 97.062 38.272ZM83.622 30.272H96.1021C95.8461 28.8 95.1421 27.52 94.1821 26.624C93.3501 25.856 92.0061 25.088 89.9581 25.088C87.7821 25.088 86.3741 25.984 85.5421 26.816C84.6461 27.648 83.942 28.928 83.622 30.272Z" fill="white"/>
<path d="M74.946 26.1759H70.146V47.3599H63.874V26.1759H61.25V20.4159H63.874V10.5599H70.146V20.4159H74.946V26.1759Z" fill="white"/>
<path d="M58.128 26.176H51.344V47.36H45.072V26.176H42.384V20.416H45.072V11.072C45.072 6.912 46.16 4.288 47.696 2.624C48.848 1.408 50.832 0 54.096 0C55.44 0 56.784 0.191998 58.128 0.767998V6.976C56.848 6.208 56.016 6.016 55.12 6.016C54.352 6.016 53.2 6.144 52.368 7.04C52.048 7.36 51.344 8.32 51.344 10.24V20.416H58.128V26.176Z" fill="white"/>
<path d="M34.432 47.36L29.952 37.056H11.712L7.04 47.36H0L21.248 2.17603L41.472 47.36H34.432ZM14.4 30.912H27.328L20.992 16.448L14.4 30.912Z" fill="white"/>
</svg>
