<svg width="76" height="41" viewBox="0 0 76 41" fill="none" xmlns="http://www.w3.org/2000/svg">
<path d="M17.7674 7.8489L11.7538 23.7575H23.7809L17.7674 7.8489ZM0 39.7208H4.81086L19.5714 0.577942H20.8835L35.7534 39.7208H40.6189V40.4862H23.7809V39.7208H29.8492L24.1089 24.5229H11.4258L5.68556 39.7208H11.7538V40.4862H0V39.7208Z" fill="white"/>
<path d="M15.7874 0H32.2427V0.765363H26.5571L37.8189 32.4733H37.9282L45.1992 12.3005L41.0444 0.765363H36.4522V0H52.8528V0.765363H46.8939L58.1557 32.4733H58.265L69.7455 0.765363H63.8959V0H75.5951V0.765363H70.6749L56.5156 39.7442H55.1489L45.7459 13.5032H45.6365L36.1242 39.7442H34.6481L20.7076 0.765363H15.7874V0Z" fill="white"/>
</svg>
